<svg width="24" height="24" viewBox="0 0 24 24" fill="none" xmlns="http://www.w3.org/2000/svg">
<path d="M18.364 7.05013L13.4142 11.9999L18.364 16.9496C18.7529 17.3385 18.7529 17.9749 18.364 18.3638C17.9751 18.7528 17.3387 18.7528 16.9497 18.3638L12 13.4141L7.05026 18.3638C6.66135 18.7528 6.02495 18.7528 5.63604 18.3638C5.24713 17.9749 5.24713 17.3385 5.63604 16.9496L10.5858 11.9999L5.63604 7.05013C5.24713 6.66122 5.24713 6.02483 5.63604 5.63592C6.02495 5.24701 6.66135 5.24701 7.05026 5.63592L12 10.5857L16.9497 5.63592C17.3387 5.24701 17.9751 5.24701 18.364 5.63592C18.7529 6.02483 18.7529 6.66122 18.364 7.05013Z" fill="#25282B"/>
</svg>
