<svg width="21" height="21" viewBox="0 0 21 21" fill="none" xmlns="http://www.w3.org/2000/svg">
<rect x="10.2932" y="0.95752" width="14.1421" height="14.1421" rx="3.31896" transform="rotate(45 10.2932 0.95752)" fill="white"/>
<path d="M12.4321 7.62921L12.4321 9.14287L8.09934 9.14287C7.62071 9.14345 7.16185 9.33874 6.82341 9.68589C6.48497 10.033 6.29458 10.5037 6.29401 10.9947L6.29401 13.5872C6.29401 13.6854 6.33205 13.7796 6.39976 13.849C6.46747 13.9185 6.55931 13.9575 6.65507 13.9575C6.75083 13.9575 6.84267 13.9185 6.91039 13.849C6.9781 13.7796 7.01614 13.6854 7.01614 13.5872L7.01614 10.9947C7.01614 10.7 7.13026 10.4174 7.3334 10.209C7.53654 10.0006 7.81206 9.88358 8.09934 9.88358L12.4321 9.88358L12.4321 11.3972C12.433 11.4644 12.4531 11.5299 12.4899 11.5855C12.5268 11.641 12.5788 11.6842 12.6395 11.7097C12.7001 11.7351 12.7667 11.7417 12.831 11.7285C12.8953 11.7154 12.9543 11.6831 13.0008 11.6357L14.8621 9.75173C14.8931 9.72068 14.9178 9.68359 14.9346 9.64263C14.9514 9.60167 14.9601 9.55767 14.9601 9.51322C14.9601 9.46878 14.9514 9.42478 14.9346 9.38382C14.9178 9.34286 14.8931 9.30576 14.8621 9.27471L13.0008 7.3907C12.9543 7.34334 12.8953 7.31107 12.831 7.29793C12.7667 7.28478 12.7001 7.29133 12.6395 7.31677C12.5788 7.34221 12.5268 7.38541 12.4899 7.44097C12.4531 7.49653 12.433 7.562 12.4321 7.62921V7.62921Z" fill="#013986"/>
</svg>
