<svg width="25" height="24" viewBox="0 0 25 24" fill="none" xmlns="http://www.w3.org/2000/svg">
<path fill-rule="evenodd" clip-rule="evenodd" d="M20.4755 4H4.47552C4.21031 4 3.95595 4.10536 3.76842 4.29289C3.58088 4.48043 3.47552 4.73478 3.47552 5V19C3.47552 19.2652 3.58088 19.5196 3.76842 19.7071C3.95595 19.8946 4.21031 20 4.47552 20H20.4755C20.7407 20 20.9951 19.8946 21.1826 19.7071C21.3702 19.5196 21.4755 19.2652 21.4755 19V5C21.4755 4.73478 21.3702 4.48043 21.1826 4.29289C20.9951 4.10536 20.7407 4 20.4755 4ZM4.47552 2C3.67988 2 2.91681 2.31607 2.3542 2.87868C1.7916 3.44129 1.47552 4.20435 1.47552 5V19C1.47552 19.7956 1.7916 20.5587 2.3542 21.1213C2.91681 21.6839 3.67988 22 4.47552 22H20.4755C21.2712 22 22.0342 21.6839 22.5968 21.1213C23.1595 20.5587 23.4755 19.7956 23.4755 19V5C23.4755 4.20435 23.1595 3.44129 22.5968 2.87868C22.0342 2.31607 21.2712 2 20.4755 2H4.47552ZM6.47552 7H8.47552V9H6.47552V7ZM11.4755 7C11.2103 7 10.956 7.10536 10.7684 7.29289C10.5809 7.48043 10.4755 7.73478 10.4755 8C10.4755 8.26522 10.5809 8.51957 10.7684 8.70711C10.956 8.89464 11.2103 9 11.4755 9H17.4755C17.7407 9 17.9951 8.89464 18.1826 8.70711C18.3702 8.51957 18.4755 8.26522 18.4755 8C18.4755 7.73478 18.3702 7.48043 18.1826 7.29289C17.9951 7.10536 17.7407 7 17.4755 7H11.4755ZM8.47552 11H6.47552V13H8.47552V11ZM10.4755 12C10.4755 11.7348 10.5809 11.4804 10.7684 11.2929C10.956 11.1054 11.2103 11 11.4755 11H17.4755C17.7407 11 17.9951 11.1054 18.1826 11.2929C18.3702 11.4804 18.4755 11.7348 18.4755 12C18.4755 12.2652 18.3702 12.5196 18.1826 12.7071C17.9951 12.8946 17.7407 13 17.4755 13H11.4755C11.2103 13 10.956 12.8946 10.7684 12.7071C10.5809 12.5196 10.4755 12.2652 10.4755 12ZM8.47552 15H6.47552V17H8.47552V15ZM10.4755 16C10.4755 15.7348 10.5809 15.4804 10.7684 15.2929C10.956 15.1054 11.2103 15 11.4755 15H17.4755C17.7407 15 17.9951 15.1054 18.1826 15.2929C18.3702 15.4804 18.4755 15.7348 18.4755 16C18.4755 16.2652 18.3702 16.5196 18.1826 16.7071C17.9951 16.8946 17.7407 17 17.4755 17H11.4755C11.2103 17 10.956 16.8946 10.7684 16.7071C10.5809 16.5196 10.4755 16.2652 10.4755 16Z" fill="black"/>
</svg>
