<svg width="25" height="24" viewBox="0 0 25 24" fill="none" xmlns="http://www.w3.org/2000/svg">
<path fill-rule="evenodd" clip-rule="evenodd" d="M20.4755 4.00024H4.47552C4.21031 4.00024 3.95595 4.1056 3.76842 4.29314C3.58088 4.48067 3.47552 4.73503 3.47552 5.00024V19.0002C3.47552 19.2655 3.58088 19.5198 3.76842 19.7074C3.95595 19.8949 4.21031 20.0002 4.47552 20.0002H20.4755C20.7407 20.0002 20.9951 19.8949 21.1826 19.7074C21.3702 19.5198 21.4755 19.2655 21.4755 19.0002V5.00024C21.4755 4.73503 21.3702 4.48067 21.1826 4.29314C20.9951 4.1056 20.7407 4.00024 20.4755 4.00024ZM4.47552 2.00024C3.67988 2.00024 2.91681 2.31631 2.3542 2.87892C1.7916 3.44153 1.47552 4.20459 1.47552 5.00024V19.0002C1.47552 19.7959 1.7916 20.559 2.3542 21.1216C2.91681 21.6842 3.67988 22.0002 4.47552 22.0002H20.4755C21.2712 22.0002 22.0342 21.6842 22.5968 21.1216C23.1595 20.559 23.4755 19.7959 23.4755 19.0002V5.00024C23.4755 4.20459 23.1595 3.44153 22.5968 2.87892C22.0342 2.31631 21.2712 2.00024 20.4755 2.00024H4.47552ZM6.47552 7.00024H8.47552V9.00024H6.47552V7.00024ZM11.4755 7.00024C11.2103 7.00024 10.956 7.1056 10.7684 7.29314C10.5809 7.48067 10.4755 7.73503 10.4755 8.00024C10.4755 8.26546 10.5809 8.51981 10.7684 8.70735C10.956 8.89489 11.2103 9.00024 11.4755 9.00024H17.4755C17.7407 9.00024 17.9951 8.89489 18.1826 8.70735C18.3702 8.51981 18.4755 8.26546 18.4755 8.00024C18.4755 7.73503 18.3702 7.48067 18.1826 7.29314C17.9951 7.1056 17.7407 7.00024 17.4755 7.00024H11.4755ZM8.47552 11.0002H6.47552V13.0002H8.47552V11.0002ZM10.4755 12.0002C10.4755 11.735 10.5809 11.4807 10.7684 11.2931C10.956 11.1056 11.2103 11.0002 11.4755 11.0002H17.4755C17.7407 11.0002 17.9951 11.1056 18.1826 11.2931C18.3702 11.4807 18.4755 11.735 18.4755 12.0002C18.4755 12.2655 18.3702 12.5198 18.1826 12.7074C17.9951 12.8949 17.7407 13.0002 17.4755 13.0002H11.4755C11.2103 13.0002 10.956 12.8949 10.7684 12.7074C10.5809 12.5198 10.4755 12.2655 10.4755 12.0002ZM8.47552 15.0002H6.47552V17.0002H8.47552V15.0002ZM10.4755 16.0002C10.4755 15.735 10.5809 15.4807 10.7684 15.2931C10.956 15.1056 11.2103 15.0002 11.4755 15.0002H17.4755C17.7407 15.0002 17.9951 15.1056 18.1826 15.2931C18.3702 15.4807 18.4755 15.735 18.4755 16.0002C18.4755 16.2655 18.3702 16.5198 18.1826 16.7074C17.9951 16.8949 17.7407 17.0002 17.4755 17.0002H11.4755C11.2103 17.0002 10.956 16.8949 10.7684 16.7074C10.5809 16.5198 10.4755 16.2655 10.4755 16.0002Z" fill="#0A84FF"/>
</svg>
