<svg width="20" height="19" viewBox="0 0 20 19" fill="none" xmlns="http://www.w3.org/2000/svg">
<path d="M17.5 0H2.5C1.83696 0 1.20107 0.263392 0.732233 0.732233C0.263392 1.20107 0 1.83696 0 2.5L0 18.3333H20V2.5C20 1.83696 19.7366 1.20107 19.2678 0.732233C18.7989 0.263392 18.163 0 17.5 0ZM2.5 1.66667H17.5C17.721 1.66667 17.933 1.75446 18.0893 1.91074C18.2455 2.06702 18.3333 2.27899 18.3333 2.5V3.05583L11.7683 9.62167C11.2987 10.0894 10.6628 10.3521 10 10.3521C9.33715 10.3521 8.70131 10.0894 8.23167 9.62167L1.66667 3.05583V2.5C1.66667 2.27899 1.75446 2.06702 1.91074 1.91074C2.06702 1.75446 2.27899 1.66667 2.5 1.66667ZM1.66667 16.6667V5.41667L7.05333 10.8C7.83552 11.5802 8.89521 12.0184 10 12.0184C11.1048 12.0184 12.1645 11.5802 12.9467 10.8L18.3333 5.41667V16.6667H1.66667Z" fill="#00205B"/>
</svg>
