<svg width="24" height="24" viewBox="0 0 24 24" fill="none" xmlns="http://www.w3.org/2000/svg">
<g clip-path="url(#clip0_294_747)">
<path d="M19.4626 2.33168C20.2462 2.94608 20.7862 3.93848 21.007 4.97768C21.0338 4.98614 21.0598 4.99657 21.085 5.00888L23.539 6.14408C23.6762 6.20706 23.7925 6.30799 23.8741 6.43493C23.9558 6.56188 23.9994 6.70954 23.9998 6.86048V21.7009C23.9989 21.8242 23.9695 21.9456 23.9138 22.0555C23.8582 22.1655 23.7778 22.2611 23.679 22.3349C23.5801 22.4086 23.4656 22.4584 23.3443 22.4804C23.223 22.5024 23.0982 22.496 22.9798 22.4617L16.177 20.5417L8.08902 22.7713C7.94309 22.8114 7.78885 22.8097 7.64382 22.7665L0.568617 20.6605C0.405082 20.6124 0.261405 20.5129 0.158931 20.3767C0.0564581 20.2405 0.000656486 20.0749 -0.000183105 19.9045L-0.000183105 4.79768C-0.000183105 4.26968 0.513417 3.89048 1.02582 4.03928L7.86822 6.03248L11.3458 4.96808C11.3937 4.95395 11.4427 4.94391 11.4922 4.93808C11.6266 4.15088 12.0022 3.39488 12.6322 2.65808C13.3798 1.78208 14.6914 1.26848 15.9694 1.20728C17.2954 1.14368 18.3082 1.42688 19.4614 2.33048L19.4626 2.33168ZM1.59942 5.85728V19.3153L7.44342 21.0541V7.55768L1.59942 5.85728ZM11.4502 6.59408L9.04302 7.32968V20.8645L15.121 19.1917V15.2377C15.121 14.8009 15.4798 14.4469 15.9214 14.4469C16.363 14.4469 16.7206 14.8009 16.7206 15.2389V19.0513L22.4002 20.6533V7.36328L21.0562 6.73928C21.0334 6.87128 21.0046 7.00088 20.9686 7.12688C20.7077 8.04699 20.2699 8.90742 19.6798 9.66008L16.7074 13.3717C16.6292 13.4693 16.5292 13.5472 16.4155 13.5994C16.3018 13.6516 16.1775 13.6765 16.0525 13.6722C15.9275 13.6679 15.8052 13.6345 15.6953 13.5746C15.5855 13.5147 15.4912 13.43 15.4198 13.3273L12.6418 9.30368C12.1834 8.66288 11.8618 8.09168 11.6806 7.58048C11.5669 7.26142 11.4896 6.93051 11.4502 6.59408ZM16.0462 2.78888C15.175 2.83088 14.2798 3.18128 13.8538 3.67928C13.3414 4.27928 13.0894 4.84088 13.039 5.40968C12.979 6.09488 13.0198 6.57848 13.1902 7.05728C13.3162 7.41128 13.567 7.86008 13.9546 8.40128L16.1278 11.5477L18.4198 8.68568C18.8822 8.09474 19.225 7.41935 19.429 6.69728C19.717 5.68928 19.2826 4.20848 18.469 3.57248C17.635 2.91848 17.005 2.74208 16.0474 2.78888H16.0462ZM16.2118 3.62528C17.5366 3.62528 18.6118 4.68728 18.6118 5.99768C18.6101 6.31106 18.5466 6.62104 18.4251 6.90989C18.3035 7.19874 18.1262 7.46081 17.9033 7.68112C17.6805 7.90144 17.4164 8.07568 17.1261 8.19389C16.8359 8.31211 16.5252 8.37197 16.2118 8.37008C14.887 8.37008 13.8118 7.30808 13.8118 5.99768C13.8118 4.68728 14.887 3.62528 16.2118 3.62528ZM16.2118 5.20688C16.1073 5.20625 16.0038 5.2262 15.907 5.2656C15.8102 5.305 15.7222 5.36307 15.6478 5.43651C15.5735 5.50994 15.5144 5.59729 15.4738 5.69358C15.4332 5.78987 15.412 5.8932 15.4114 5.99768C15.4114 6.43448 15.7702 6.78848 16.2118 6.78848C16.3163 6.78895 16.4198 6.76884 16.5166 6.7293C16.6133 6.68975 16.7012 6.63154 16.7754 6.558C16.8497 6.48446 16.9087 6.39701 16.9491 6.30067C16.9895 6.20432 17.0105 6.10096 17.011 5.99648C17.0094 5.78589 16.9244 5.58452 16.7746 5.43651C16.6248 5.2885 16.4224 5.20592 16.2118 5.20688Z" fill="black"/>
</g>
<defs>
<clipPath id="clip0_294_747">
<rect width="24" height="24" fill="white"/>
</clipPath>
</defs>
</svg>
