<svg width="21" height="21" viewBox="0 0 21 21" fill="none" xmlns="http://www.w3.org/2000/svg">
<path d="M19.4753 1.51654L18.6003 0.758203C17.5919 -0.25013 15.9586 -0.25013 14.9503 0.758203C14.9253 0.783203 13.3836 2.79154 13.3836 2.79154C12.4336 3.79154 12.4336 5.36654 13.3836 6.3582L14.3503 7.57487C13.1336 10.3332 11.2419 12.2332 8.57528 13.3665L7.35861 12.3915C6.36694 11.4332 4.78361 11.4332 3.79194 12.3915C3.79194 12.3915 1.78361 13.9332 1.75861 13.9582C0.750278 14.9665 0.750278 16.5999 1.71694 17.5665L2.55028 18.5249C3.50861 19.4832 4.80028 20.0082 6.20028 20.0082C12.5669 20.0082 21.0003 11.5665 21.0003 5.2082C21.0003 3.81654 20.4753 2.51654 19.4753 1.52487V1.51654ZM6.20028 18.3332C5.25028 18.3332 4.37528 17.9832 3.77528 17.3749L2.94194 16.4165C2.60028 16.0749 2.58361 15.5165 2.90861 15.1582C2.90861 15.1582 4.90028 13.6249 4.92528 13.5999C5.26694 13.2582 5.86694 13.2582 6.21695 13.5999C6.24194 13.6249 7.91694 14.9665 7.91694 14.9665C8.15028 15.1499 8.45861 15.1999 8.73361 15.0915C12.1836 13.7749 14.6586 11.3082 16.0836 7.74987C16.1919 7.47487 16.1503 7.1582 15.9586 6.91654C15.9586 6.91654 14.6169 5.2332 14.6003 5.21654C14.2419 4.8582 14.2419 4.2832 14.6003 3.92487C14.6253 3.89987 16.1586 1.9082 16.1586 1.9082C16.5169 1.5832 17.0753 1.59154 17.4586 1.97487L18.3336 2.7332C18.9753 3.37487 19.3336 4.24987 19.3336 5.19987C19.3336 10.9999 11.1919 18.3332 6.20028 18.3332Z" fill="#00205B"/>
</svg>
