<svg width="20" height="24" viewBox="0 0 20 24" fill="none" xmlns="http://www.w3.org/2000/svg">
<path d="M10 23.8817L9.30632 23.2871C8.35003 22.4863 0 15.275 0 10C0 4.47716 4.47716 0 10 0C15.5228 0 20 4.47716 20 10C20 15.275 11.65 22.4864 10.6976 23.291L10 23.8817ZM10 2.16229C5.67341 2.16719 2.16724 5.67336 2.16234 9.99995C2.16234 13.3138 7.2996 18.6076 10 21.0306C12.7005 18.6066 17.8377 13.3098 17.8377 9.99995C17.8328 5.67336 14.3266 2.16724 10 2.16229Z" fill="#00205B"/>
<path d="M10 13.964C7.81084 13.964 6.03613 12.1893 6.03613 10C6.03613 7.81084 7.81084 6.03613 10 6.03613C12.1893 6.03613 13.964 7.81084 13.964 10C13.964 12.1893 12.1893 13.964 10 13.964ZM10 8.01804C8.90544 8.01804 8.01809 8.9054 8.01809 10C8.01809 11.0946 8.90544 11.982 10 11.982C11.0947 11.982 11.982 11.0946 11.982 10C11.982 8.9054 11.0947 8.01804 10 8.01804Z" fill="#00205B"/>
</svg>
