<svg width="21" height="21" viewBox="0 0 21 21" fill="none" xmlns="http://www.w3.org/2000/svg">
<path fill-rule="evenodd" clip-rule="evenodd" d="M9.62977 3.45008C6.31805 3.45008 3.63336 6.13476 3.63336 9.44648C3.63336 12.7582 6.31805 15.4429 9.62977 15.4429C12.9415 15.4429 15.6262 12.7582 15.6262 9.44648C15.6262 6.13476 12.9415 3.45008 9.62977 3.45008ZM1.9201 9.44648C1.9201 5.18855 5.37184 1.73682 9.62977 1.73682C13.8877 1.73682 17.3394 5.18855 17.3394 9.44648C17.3394 13.7044 13.8877 17.1561 9.62977 17.1561C5.37184 17.1561 1.9201 13.7044 1.9201 9.44648Z" fill="white"/>
<path fill-rule="evenodd" clip-rule="evenodd" d="M13.864 13.6811C14.1985 13.3465 14.7409 13.3465 15.0755 13.6811L18.8018 17.4074C19.1363 17.742 19.1363 18.2843 18.8018 18.6189C18.4673 18.9534 17.9249 18.9534 17.5903 18.6189L13.864 14.8925C13.5295 14.558 13.5295 14.0156 13.864 13.6811Z" fill="white"/>
</svg>
