<svg width="47" height="70" viewBox="0 0 47 70" fill="none" xmlns="http://www.w3.org/2000/svg">
<path d="M23.5 6.55298e-06C20.4133 -0.0023394 17.3564 0.625223 14.5043 1.8468C11.6521 3.06837 9.06057 4.85999 6.87794 7.11916C4.69531 9.37834 2.9644 12.0607 1.78422 15.013C0.604038 17.9652 -0.00226014 21.1292 6.33095e-06 24.3242C6.33095e-06 42.5682 23.5 69.4989 23.5 69.4989C23.5 69.4989 47 42.5593 47 24.3242C47.0023 21.1292 46.396 17.9652 45.2158 15.013C44.0356 12.0607 42.3047 9.37834 40.1221 7.11916C37.9394 4.85999 35.3479 3.06837 32.4957 1.8468C29.6436 0.625223 26.5867 -0.0023394 23.5 6.55298e-06ZM23.5 33.0055C21.8397 33.0066 20.2164 32.4979 18.8355 31.5438C17.4546 30.5897 16.3781 29.2331 15.7423 27.6456C15.1064 26.0581 14.9398 24.311 15.2635 22.6255C15.5871 20.9399 16.3865 19.3916 17.5605 18.1764C18.7345 16.9612 20.2304 16.1338 21.8588 15.7988C23.4873 15.4638 25.1751 15.6363 26.7088 16.2944C28.2425 16.9525 29.5532 18.0668 30.475 19.4961C31.3967 20.9254 31.8882 22.6057 31.8872 24.3242C31.8849 26.6259 31.0005 28.8327 29.4281 30.4602C27.8557 32.0878 25.7237 33.0032 23.5 33.0055Z" fill="#009F03"/>
<path d="M23.9641 43.5349C34.3697 43.5349 42.8051 34.8036 42.8051 24.0331C42.8051 13.2625 34.3697 4.53125 23.9641 4.53125C13.5585 4.53125 5.12305 13.2625 5.12305 24.0331C5.12305 34.8036 13.5585 43.5349 23.9641 43.5349Z" fill="white"/>
<path d="M23.8778 10.9572C19.9169 10.909 16.01 11.9114 12.5294 13.8689L12.5087 13.8831C11.7492 14.3806 11.1399 15.0889 10.7501 15.9273C10.3604 16.7657 10.2059 17.7004 10.3042 18.6252C11.622 26.021 15.4787 32.6742 21.1631 37.3581C21.918 38.0305 22.881 38.4003 23.8769 38.4003C24.8729 38.4003 25.8358 38.0305 26.5908 37.3581C32.2732 32.6724 36.1294 26.02 37.4497 18.6252C37.5474 17.7008 37.3924 16.7666 37.0023 15.9288C36.6123 15.0911 36.0029 14.3836 35.2434 13.8867L35.221 13.8724C31.7424 11.9146 27.8371 10.9121 23.8778 10.9608M23.8778 12.8288C27.5112 12.7817 31.0963 13.6928 34.2954 15.4763C34.7637 15.7851 35.1392 16.2232 35.3798 16.7411C35.6204 17.259 35.7165 17.8362 35.6571 18.4076C34.3881 25.3145 30.7713 31.5226 25.4618 35.9076C25.0279 36.3144 24.4633 36.5397 23.8778 36.5397C23.2923 36.5397 22.7277 36.3144 22.2938 35.9076C20.8874 34.7422 19.5911 33.4411 18.4225 32.0219L23.2952 30.8283C26.0703 30.1486 26.3616 26.725 26.3616 26.725L23.3107 27.4725C23.0697 28.031 22.7103 28.5261 22.2591 28.9211C21.808 29.3162 21.2766 29.601 20.7046 29.7543L17.3073 30.5857C16.6045 29.6158 15.9587 28.603 15.3734 27.5528L23.5641 25.5457C23.6087 25.5377 23.6546 25.5421 23.697 25.5585C23.7394 25.5749 23.7768 25.6027 23.8054 25.639C23.834 25.6754 23.8527 25.7189 23.8597 25.7652C23.8667 25.8115 23.8616 25.8589 23.8451 25.9025L23.6968 26.4377L26.2616 25.8079C26.8627 25.6504 27.4197 25.3492 27.8879 24.9284C28.3561 24.5076 28.7224 23.9791 28.9573 23.3852C29.2223 22.789 29.3967 22.1542 29.4744 21.503L23.895 22.8713C23.3676 23.5968 22.6104 24.1071 21.756 24.3129L14.6012 26.0666C14.065 24.9675 13.5941 23.8355 13.1913 22.6769L24.7793 19.842C24.8148 19.8356 24.8513 19.8384 24.8855 19.8503C24.9197 19.8622 24.9505 19.8826 24.9751 19.9099C24.9997 19.9372 25.0174 19.9704 25.0266 20.0065C25.0357 20.0426 25.036 20.0805 25.0275 20.1167C24.9279 20.6918 24.7588 21.2517 24.5242 21.7831L29.2986 20.6145C29.9395 20.4469 30.5335 20.126 31.0328 19.6776C31.5321 19.2293 31.9228 18.666 32.1736 18.0329C32.4565 17.3956 32.642 16.7167 32.7235 16.0205L12.6432 20.8981C12.4076 20.0792 12.2256 19.2447 12.0985 18.4004C12.0378 17.8281 12.133 17.2496 12.3734 16.7304C12.6137 16.2111 12.9895 15.7718 13.4584 15.4621C16.6582 13.6786 20.2439 12.7675 23.8778 12.8145" fill="#009F03"/>
</svg>
